{"title":"Transformers.2007.720p.BRRip.x264-Fastbet99","uid":9036516,"size":1868563993,"categoryP":"video","categoryS":"hd___movies","magnet":"?xt=urn:btih:850efa5fb588b76c3fdf179abaa4d7bf2c950684&amp;dn=Transformers.2007.720p.BRRip.x264-Fastbet99&amp;tr=udp%3A%2F%2Ftracker.openbittorrent.com%3A80&amp;tr=udp%3A%2F%2Fopen.demonii.com%3A1337&amp;tr=udp%3A%2F%2Ftracker.coppersurfer.tk%3A6969&amp;tr=udp%3A%2F%2Fexodus.desync.com%3A6969","seeders":0,"leechers":1,"uploader":"Fastbet99","files":-1,"time":1381517914,"description":"Transformers (2007)\n\nIMDB Info\t\t\t\t : http://www.imdb.com/title/tt0418279/\n\nSource\t\t\t\t\t : HiDt (Thanks)\nComplete name                            : Transformers.2007.720p.BRRip.x264-Fastbet99.mp4\nFormat                                   : MPEG-4\nFormat profile                           : Base Media\nCodec ID                                 : isom\nFile size                                : 1.74 GiB\nDuration                                 : 2h 23mn\nOverall bit rate mode                    : Variable\nOverall bit rate                         : 1 737 Kbps\n\nVideo\nID                                       : 1\nFormat                                   : AVC\nFormat/Info                              : Advanced Video Codec\nFormat profile                           : &lt;a class=&quot;__cf_email__&quot; href=&quot;/cdn-cgi/l/email-protection&quot; data-cfemail=&quot;652d0c020d2529514b54&quot;&gt;[email&amp;#160;protected]&lt;/a&gt;&lt;script cf-hash='f9e31' type=&quot;text/javascript&quot;&gt;\n/* &lt;![CDATA[ */!function(){try{var t=&quot;currentScript&quot;in document?document.currentScript:function(){for(var t=document.getElementsByTagName(&quot;script&quot;),e=t.length;e--;)if(t[e].getAttribute(&quot;cf-hash&quot;))return t[e]}();if(t&amp;&amp;t.previousSibling){var e,r,n,i,c=t.previousSibling,a=c.getAttribute(&quot;data-cfemail&quot;);if(a){for(e=&quot;&quot;,r=parseInt(a.substr(0,2),16),n=2;a.length-n;n+=2)i=parseInt(a.substr(n,2),16)^r,e+=String.fromCharCode(i);e=document.createTextNode(e),c.parentNode.replaceChild(e,c)}}}catch(u){}}();/* ]]&gt; */&lt;/script&gt;\nFormat settings, CABAC                   : Yes\nFormat settings, ReFrames                : 4 frames\nCodec ID                                 : avc1\nCodec ID/Info                            : Advanced Video Coding\nDuration                                 : 2h 23mn\nBit rate                                 : 1 537 Kbps\nMaximum bit rate                         : 8 723 Kbps\nWidth                                    : 1 280 pixels\nHeight                                   : 534 pixels\nDisplay aspect ratio                     : 2.40:1\nFrame rate mode                          : Constant\nFrame rate                               : 23.976 fps\nColor space                              : YUV\nChroma subsampling                       : 4:2:0\nBit depth                                : 8 bits\nScan type                                : Progressive\nBits/(Pixel*Frame)                       : 0.094\nStream size                              : 1.54 GiB (88%)\nWriting library                          : x264 core 133 r2334 a3ac64b\n\nAudio #1\nID                                       : 2\nFormat                                   : AAC\nFormat/Info                              : Advanced Audio Codec\nFormat profile                           : LC\nCodec ID                                 : 40\nDuration                                 : 2h 23mn\nBit rate mode                            : Variable\nBit rate                                 : 96.0 Kbps\nMaximum bit rate                         : 121 Kbps\nChannel(s)                               : 2 channels\nChannel positions                        : Front: L R\nSampling rate                            : 48.0 KHz\nCompression mode                         : Lossy\nStream size                              : 98.4 MiB (6%)\nLanguage                                 : English\n\nAudio #2\nID                                       : 3\nFormat                                   : AAC\nFormat/Info                              : Advanced Audio Codec\nFormat profile                           : LC\nCodec ID                                 : 40\nDuration                                 : 2h 23mn\nBit rate mode                            : Variable\nBit rate                                 : 96.0 Kbps\nMaximum bit rate                         : 120 Kbps\nChannel(s)                               : 2 channels\nChannel positions                        : Front: L R\nSampling rate                            : 48.0 KHz\nCompression mode                         : Lossy\nStream size                              : 98.4 MiB (6%)\nLanguage                                 : English\n\nText #1\nID                                       : 4\nFormat                                   : Timed Text\nCodec ID                                 : tx3g\nDuration                                 : 2h 15mn\nBit rate mode                            : Variable\nBit rate                                 : 75 bps\nStream size                              : 74.6 KiB (0%)\nLanguage                                 : English\n\nText #2\nID                                       : 5\nFormat                                   : Timed Text\nCodec ID                                 : tx3g\nDuration                                 : 2h 19mn\nBit rate mode                            : Variable\nBit rate                                 : 92 bps\nStream size                              : 93.7 KiB (0%)\nLanguage                                 : English\n\nText #3\nID                                       : 6\nFormat                                   : Timed Text\nCodec ID                                 : tx3g\nDuration                                 : 2h 16mn\nBit rate mode                            : Variable\nBit rate                                 : 87 bps\nStream size                              : 87.6 KiB (0%)\nLanguage                                 : Bulgarian\n\nText #4\nID                                       : 7\nFormat                                   : Timed Text\nCodec ID                                 : tx3g\nDuration                                 : 2h 16mn\nBit rate mode                            : Variable\nBit rate                                 : 98 bps\nStream size                              : 97.3 KiB (0%)\nLanguage                                 : Arabic\n\nText #5\nID                                       : 8\nFormat                                   : Timed Text\nCodec ID                                 : tx3g\nDuration                                 : 2h 16mn\nBit rate mode                            : Variable\nBit rate                                 : 67 bps\nStream size                              : 67.1 KiB (0%)\nLanguage                                 : Chinese\n\nText #6\nID                                       : 9\nFormat                                   : Timed Text\nCodec ID                                 : tx3g\nDuration                                 : 2h 16mn\nBit rate mode                            : Variable\nBit rate                                 : 52 bps\nStream size                              : 51.6 KiB (0%)\nLanguage                                 : Czech\nText #7\nID                                       : 10\nFormat                                   : Timed Text\nCodec ID                                 : tx3g\nDuration                                 : 2h 16mn\nBit rate mode                            : Variable\nBit rate                                 : 51 bps\nStream size                              : 50.4 KiB (0%)\nLanguage                                 : Danish\n\nText #8\nID                                       : 11\nFormat                                   : Timed Text\nCodec ID                                 : tx3g\nDuration                                 : 2h 16mn\nBit rate mode                            : Variable\nBit rate                                 : 64 bps\nStream size                              : 63.4 KiB (0%)\nLanguage                                 : Finnish\n\nText #9\nID                                       : 12\nFormat                                   : Timed Text\nCodec ID                                 : tx3g\nDuration                                 : 2h 16mn\nBit rate mode                            : Variable\nBit rate                                 : 79 bps\nStream size                              : 78.9 KiB (0%)\nLanguage                                 : French\n\nText #10\nID                                       : 13\nFormat                                   : Timed Text\nCodec ID                                 : tx3g\nDuration                                 : 2h 16mn\nBit rate mode                            : Variable\nBit rate                                 : 83 bps\nStream size                              : 82.9 KiB (0%)\nLanguage                                 : Greek\n\nText #11\nID                                       : 14\nFormat                                   : Timed Text\nCodec ID                                 : tx3g\nDuration                                 : 2h 15mn\nBit rate mode                            : Variable\nBit rate                                 : 50 bps\nStream size                              : 49.4 KiB (0%)\nLanguage                                 : Norwegian\n\nText #12\nID                                       : 15\nFormat                                   : Timed Text\nCodec ID                                 : tx3g\nDuration                                 : 2h 16mn\nBit rate mode                            : Variable\nBit rate                                 : 71 bps\nStream size                              : 70.3 KiB (0%)\nLanguage                                 : Polish\n\nText #13\nID                                       : 16\nFormat                                   : Timed Text\nCodec ID                                 : tx3g\nDuration                                 : 2h 16mn\nBit rate mode                            : Variable\nBit rate                                 : 81 bps\nStream size                              : 80.6 KiB (0%)\nLanguage                                 : Portuguese\n\nText #14\nID                                       : 17\nFormat                                   : Timed Text\nCodec ID                                 : tx3g\nDuration                                 : 2h 16mn\nBit rate mode                            : Variable\nBit rate                                 : 67 bps\nStream size                              : 66.9 KiB (0%)\nLanguage                                 : Portuguese\n\nText #15\nID                                       : 18\nFormat                                   : Timed Text\nCodec ID                                 : tx3g\nDuration                                 : 2h 15mn\nBit rate mode                            : Variable\nBit rate                                 : 86 bps\nStream size                              : 85.2 KiB (0%)\nLanguage                                 : Romanian\n\nText #16\nID                                       : 19\nFormat                                   : Timed Text\nCodec ID                                 : tx3g\nDuration                                 : 2h 16mn\nBit rate mode                            : Variable\nBit rate                                 : 121 bps\nStream size                              : 121 KiB (0%)\nLanguage                                 : Russian\n\nText #17\nID                                       : 20\nFormat                                   : Timed Text\nCodec ID                                 : tx3g\nDuration                                 : 2h 15mn\nBit rate mode                            : Variable\nBit rate                                 : 63 bps\nStream size                              : 63.0 KiB (0%)\nLanguage                                 : Spanish\n\nText #18\nID                                       : 21\nFormat                                   : Timed Text\nCodec ID                                 : tx3g\nDuration                                 : 2h 15mn\nBit rate mode                            : Variable\nBit rate                                 : 56 bps\nStream size                              : 54.9 KiB (0%)\nLanguage                                 : Swedish\n\nText #19\nID                                       : 22\nFormat                                   : Timed Text\nCodec ID                                 : tx3g\nDuration                                 : 2h 16mn\nBit rate mode                            : Variable\nBit rate                                 : 81 bps\nStream size                              : 80.6 KiB (0%)\nLanguage                                 : Turkish\n\nText #20\nID                                       : 23\nFormat                                   : Timed Text\nCodec ID                                 : tx3g\nDuration                                 : 2h 16mn\nBit rate mode                            : Variable\nBit rate                                 : 104 bps\nStream size                              : 103 KiB (0%)\nLanguage                                 : Vietnamese\nEncoder\t\t\t\t\t : Fastbet99\n\nScreenshots\n &lt;a href=&quot;\nhttp://lookpic.com/O/i2/800/h6OXtUz.jpeg&quot; rel=&quot;nofollow&quot; target=&quot;_NEW&quot;&gt;\nhttp://lookpic.com/O/i2/800/h6OXtUz.jpeg&lt;/a&gt;\n\nStairway To heaven - Help People With Keep Seed As Long You Can","torrent":{"xt":"urn:btih:850efa5fb588b76c3fdf179abaa4d7bf2c950684","amp;dn":"Transformers.2007.720p.BRRip.x264-Fastbet99","amp;tr":["udp%3A%2F%2Ftracker.openbittorrent.com%3A80","udp%3A%2F%2Fopen.demonii.com%3A1337","udp%3A%2F%2Ftracker.coppersurfer.tk%3A6969","udp%3A%2F%2Fexodus.desync.com%3A6969"],"infoHash":"850efa5fb588b76c3fdf179abaa4d7bf2c950684","infoHashBuffer":{"type":"Buffer","data":[133,14,250,95,181,136,183,108,63,223,23,154,186,164,215,191,44,149,6,132]},"announce":[],"urlList":[]}}